<svg version="1" xmlns="http://www.w3.org/2000/svg" width="1365.333" height="1365.333" viewBox="0 0 1024.000000 1024.000000"><path d="M502.5 78.1c-13.4 1.4-30.8 7.7-44.2 16.1-7.2 4.6-18.4 11.4-142.3 86.6-16.8 10.2-33 20.1-36 22-3 1.8-20.3 12.4-38.5 23.4-57 34.7-66 40.2-67.1 41.3-4.6 4.4-4.8 14.1-.5 18.5.9.9 6.1 4.3 11.6 7.5s10.7 6.4 11.5 7.1c.8.6 3.5 2.3 6 3.7 2.5 1.3 17.3 10.2 33 19.7s29.9 18 31.5 19c1.7.9 12.9 7.7 25 15s23.4 14.1 25 15c1.7 1 8.4 5 15 9s13.2 8 14.7 8.9c1.5.9 34.5 20.7 73.3 44.1 38.8 23.4 71.3 43 72.3 43.5.9.6 5.7 3.4 10.5 6.2l8.8 5.2 21.7-13c11.9-7.2 23.7-14.3 26.2-15.7 2.5-1.4 5.6-3.3 7-4.3 2-1.3 80.9-48.7 87.3-52.4.9-.5 16-9.6 33.5-20.1 17.4-10.6 60.7-36.6 96.2-57.9 35.5-21.3 65.4-39.7 66.4-40.8 2.4-2.5 3.3-10.6 1.6-14.6-1.2-3.1-3.9-5-25-17.8-6.3-3.9-21.8-13.3-34.5-21-12.6-7.7-28.2-17.1-34.5-20.9-6.3-3.8-11.7-7.1-12-7.4-.3-.3-5.4-3.5-11.5-7.1-6-3.6-20.4-12.4-32-19.4-11.5-7-23-14-25.5-15.5s-12.8-7.8-23-14-24.6-15-32-19.5c-7.4-4.5-22.9-14-34.5-21-11.5-7-22.5-13.6-24.2-14.6-1.8-1.1-4.8-2.7-6.5-3.7-15-8.5-36.5-12.9-54.3-11.1zM144.4 339c-4.2.9-8 3.9-9.6 7.5-1 2.4-1.3 36.5-1.3 176 0 95.2.3 176.1.7 180 3.4 30.1 17.1 54.8 40.3 72.6 3.3 2.5 21.3 14 40 25.4 18.7 11.4 39.6 24.3 46.5 28.5 6.9 4.3 28.9 17.8 49 30 20.1 12.3 54.5 33.3 76.5 46.7 22 13.5 41.1 25.3 42.5 26.2 2.5 1.8 7.8 4.9 17.7 10.3 12.7 7 29.2.6 36-13.9 1.7-3.6 1.8-13.7 2.1-197.4l.2-193.6-13.2-7.9c-7.3-4.3-14.2-8.4-15.3-9-1.1-.6-22.7-13.4-48-28.4-25.3-15-47.3-28-49-29-3.4-1.9-76.4-45.2-100.5-59.5-8.5-5-32.1-19-52.5-31-20.3-12-39.7-23.4-43-25.5-10.8-6.7-15.7-8.7-19.1-8zM873.2 340c-3.6 1.6-18.7 10.5-58.7 34.3-5.5 3.3-11.3 6.8-13 7.7-1.6.9-15.4 9-30.5 18s-28.8 17.1-30.5 18c-3.4 2-51.3 30.4-103 61-19.2 11.4-36.6 21.7-38.5 22.8-1.9 1-16.2 9.5-31.7 18.7L539 537.2v191.5c0 213.5-.5 198 6.9 206.5 8.5 9.6 20.5 12.7 30.2 7.8 2.4-1.3 13.6-8 24.9-14.9 23.3-14.3 21.7-13.4 30.1-18.4 3.5-2.1 8-4.8 9.9-6 42.1-25.8 79.2-48.5 87.3-53.4 5.6-3.4 10.7-6.5 11.2-7 .6-.4 2.6-1.7 4.5-2.7 1.9-1 5.3-3.1 7.5-4.5 2.2-1.5 9.6-6 16.5-10.1s12.7-7.7 13-8c.3-.3 4.6-2.9 9.5-5.9 28.7-17.3 53.7-33 58.6-36.7 17.7-13.5 29.1-29.5 35.9-50.3 2.9-8.9 3.3-10.9 4.8-24.1.4-3.6.7-84.1.7-179 0-186.3.3-177-5.2-180.6-4.6-3-7.7-3.3-12.1-1.4z"/></svg>